<svg width="178" height="32" viewBox="0 0 178 32" fill="none" xmlns="http://www.w3.org/2000/svg">
<path d="M19.699 20.2238C20.2084 20.7869 20.6879 21.5512 21.1274 22.5167L25.343 32H18.4004L13.8952 21.7926C13.5356 21.0082 13.086 20.4349 12.5266 20.093C11.9772 19.741 11.258 19.5701 10.3789 19.5701H7.23228L6.36321 32H0L2.27757 0H15.8431C18.8798 0 21.2273 0.814582 22.9155 2.4538C24.5938 4.08297 25.4428 6.32558 25.4428 9.17159C25.4428 14.8636 22.8956 18.142 17.791 19.017C18.5502 19.2583 19.1895 19.6606 19.699 20.2238ZM14.4346 14.2099C16.0629 14.2099 17.2915 13.8177 18.1306 13.0333C18.9698 12.2489 19.3893 11.0924 19.3893 9.58391C19.3893 8.16593 19.0297 7.10999 18.3105 6.42615C17.5912 5.7423 16.4924 5.40038 15.004 5.40038H8.19126L7.57192 14.2099H14.4346Z" fill="white"/>
<path d="M34.7429 28.973C32.775 26.9516 31.7861 23.9648 31.7861 19.9824C31.7861 19.5902 31.816 18.9767 31.866 18.142L33.1346 0H39.2081L37.9395 18.3331C37.9095 18.665 37.8995 19.1276 37.8995 19.7209C37.8995 22.0239 38.389 23.7436 39.368 24.8699C40.3469 26.0063 41.8453 26.5695 43.8532 26.5695C45.6213 26.5695 47.0098 25.9962 48.0187 24.8397C49.0277 23.6933 49.617 21.8127 49.8068 19.2181L51.1454 0H57.2189L55.9103 18.7354C55.6206 23.1301 54.4319 26.4387 52.3441 28.6612C50.2564 30.8837 47.3195 32 43.5335 32C39.6377 32 36.7108 30.9943 34.7429 28.973Z" fill="white"/>
<path d="M90.2437 0H95.3482L92.9808 32H87.2069L88.6054 13.0735L80.7938 26.7404H76.5683L70.7045 13.3953L69.356 32H63.5721L65.9296 0H71.1241L79.1855 19.2885L90.2437 0Z" fill="white"/>
<path d="M124.727 32L122.689 24.9202H110.552L107.625 32H101.701L115.736 0H120.362L130.321 32H124.727ZM112.74 19.56H121.141L117.694 7.53237L112.74 19.56Z" fill="white"/>
<path d="M136.674 32L138.432 9.71463H145.245L143.487 32H136.674Z" fill="white"/>
<path d="M141.958 0H142.887C144.735 0 146.204 1.58894 146.054 3.4494C145.924 5.11879 144.546 6.39598 142.887 6.39598H141.958C140.1 6.39598 138.642 4.80704 138.792 2.94657C138.922 1.28724 140.3 0 141.958 0Z" fill="#FEB237"/>
<path d="M172.436 0H178L175.862 32H171.437L159.47 11.9371L158.101 32H152.577L154.705 0H159.09L171.097 20.1031L172.436 0Z" fill="white"/>
</svg>
