<svg width="30" height="30" viewBox="0 0 30 30" fill="none" xmlns="http://www.w3.org/2000/svg">
<path d="M28 16.5335H4V5.31135C3.99884 4.88873 4.08173 4.47008 4.24386 4.07963C4.406 3.68919 4.64416 3.3347 4.94456 3.03669L4.96956 3.01175C5.44035 2.54281 6.0448 2.2303 6.70032 2.11691C7.35584 2.00352 8.03048 2.09477 8.63206 2.3782C8.06392 3.32048 7.82777 4.42513 7.96115 5.51663C8.09452 6.60814 8.58977 7.62387 9.36819 8.40242L10.0526 9.08516L8.79281 10.3419L10.2069 11.7525L11.4668 10.4958L18.4473 3.5327L19.7071 2.27601L18.2929 0.865331L17.0331 2.12202L16.3486 1.43928C15.5292 0.624137 14.449 0.121653 13.2962 0.0193912C12.1435 -0.0828706 10.9914 0.221573 10.0406 0.879671C9.03795 0.248061 7.84979 -0.0246096 6.67128 0.106452C5.49277 0.237514 4.39399 0.764514 3.55544 1.60088L3.53044 1.62582C3.04371 2.10868 2.65783 2.68304 2.39513 3.31566C2.13243 3.94829 1.99813 4.6266 2 5.31135V16.5335H0V18.5285H2V20.4425C1.99996 20.6033 2.02596 20.7631 2.077 20.9156L3.9375 26.4831C4.03679 26.7811 4.2277 27.0404 4.48313 27.2241C4.73855 27.4077 5.0455 27.5065 5.36037 27.5062H6.16663L5.4375 30H7.52081L8.25 27.5062H21.2563L22.0063 30H24.0938L23.3438 27.5062H24.6394C24.9543 27.5065 25.2613 27.4078 25.5168 27.2241C25.7722 27.0405 25.9632 26.7812 26.0625 26.4831L27.9229 20.9156C27.9739 20.7631 28 20.6033 28 20.4425V18.5285H30V16.5335H28ZM10.7825 2.84996C11.3335 2.30153 12.0801 1.99352 12.8585 1.99352C13.6368 1.99352 14.3834 2.30153 14.9344 2.84996L15.6187 3.5327L11.4669 7.67422L10.7825 6.99161C10.2327 6.44196 9.92398 5.69723 9.92398 4.92079C9.92398 4.14435 10.2327 3.39961 10.7825 2.84996ZM26 20.3615L24.2792 25.5112H5.72075L4 20.3615V18.5285H26V20.3615Z" fill="#EF4C4D"/>
</svg>
