<svg width="37" height="29" viewBox="0 0 37 29" fill="none" xmlns="http://www.w3.org/2000/svg">
<path d="M29.2694 13.748H5.0386V4.99795C5.04127 4.10622 5.39669 3.25176 6.02724 2.62121C6.6578 1.99065 7.51225 1.63523 8.40399 1.63257H28.5963C29.488 1.63523 30.3425 1.99065 30.973 2.62121C31.6036 3.25176 31.959 4.10622 31.9617 4.99795V13.748H29.2694Z" stroke="#EF4C4D" stroke-width="2"/>
<path d="M1 28.5558V19.1327C1.00422 17.7059 1.57288 16.3388 2.58178 15.3299C3.59067 14.321 4.95782 13.7523 6.38462 13.7481H30.6154C32.0422 13.7523 33.4093 14.321 34.4182 15.3299C35.4271 16.3388 35.9958 17.7059 36 19.1327V28.5558" stroke="#EF4C4D" stroke-width="2"/>
<path d="M1 28.5556V27.8825C1.00155 27.3474 1.21479 26.8347 1.59314 26.4564C1.97148 26.078 2.48418 25.8648 3.01923 25.8633H33.9808C34.5158 25.8648 35.0285 26.078 35.4069 26.4564C35.7852 26.8347 35.9984 27.3474 36 27.8825V28.5556" stroke="#EF4C4D" stroke-width="2"/>
<path d="M6.3848 13.748V12.4018C6.38679 11.6884 6.67109 11.0048 7.17556 10.5003C7.68004 9.99583 8.36367 9.71153 9.0771 9.70953H15.8079C16.5213 9.71153 17.2049 9.99583 17.7094 10.5003C18.2139 11.0048 18.4982 11.6884 18.5002 12.4018V13.748" stroke="#EF4C4D" stroke-width="2"/>
<path d="M18.5001 13.748V12.4018C18.5021 11.6884 18.7864 11.0048 19.2909 10.5003C19.7954 9.99583 20.479 9.71153 21.1924 9.70953H27.9232C28.6366 9.71153 29.3203 9.99583 29.8247 10.5003C30.3292 11.0048 30.6135 11.6884 30.6155 12.4018V13.748" stroke="#EF4C4D" stroke-width="2"/>
</svg>
