<svg width="45" height="45" viewBox="0 0 45 45" fill="none" xmlns="http://www.w3.org/2000/svg">
<g clip-path="url(#clip0_1_123)">
<path d="M40.5001 0H36.0001C33.3126 0 30.9001 1.17917 29.2501 3.05C27.6001 1.17917 25.1876 0 22.5001 0H18.0001V4.5H22.5001C24.9834 4.5 27.0001 6.51667 27.0001 9V13.5H31.5001V9C31.5001 6.51667 33.5168 4.5 36.0001 4.5H40.5001V9V13.5V18V22.5H45.0001V18V13.5V9V4.5V0H40.5001Z" fill="white"/>
<path d="M27 18V22.5C27 24.9833 24.9833 27 22.5 27C20.0167 27 18 24.9833 18 22.5C18 19.8125 16.8208 17.4 14.95 15.75C16.8208 14.1 18 11.6875 18 9C18 4.02917 13.9708 0 9 0H4.5H0V4.5H4.5H9C11.4833 4.5 13.5 6.51667 13.5 9C13.5 11.4833 11.4833 13.5 9 13.5V18C11.4833 18 13.5 20.0167 13.5 22.5C13.5 27.4708 17.5292 31.5 22.5 31.5C27.4708 31.5 31.5 27.4708 31.5 22.5V18H27Z" fill="white"/>
<path d="M40.4999 27H35.9999C31.0291 27 26.9999 31.0292 26.9999 36C26.9999 40.9708 31.0291 45 35.9999 45V40.5C33.5166 40.5 31.4999 38.4833 31.4999 36C31.4999 33.5167 33.5166 31.5 35.9999 31.5H40.4999V36V40.5V45H44.9999V40.5V36V31.5V27H40.4999Z" fill="white"/>
<path d="M4.48821 15.9712C4.61061 14.7346 3.70741 13.633 2.47086 13.5106C1.23431 13.3882 0.13266 14.2914 0.0102603 15.5279C-0.11214 16.7645 0.791058 17.8661 2.02761 17.9885C3.26416 18.1109 4.36581 17.2077 4.48821 15.9712Z" fill="white"/>
</g>
<defs>
<clipPath id="clip0_1_123">
<rect width="45" height="45" fill="white"/>
</clipPath>
</defs>
</svg>
